<svg width="17" height="17" viewBox="0 0 17 17" fill="none" xmlns="http://www.w3.org/2000/svg">
<g id="ph:heart-bold">
<path id="Vector" d="M11.8203 1.85938C10.4862 1.85938 9.30219 2.38598 8.5 3.29109C7.69781 2.38598 6.51379 1.85938 5.17969 1.85938C4.01772 1.86078 2.90376 2.32299 2.08212 3.14462C1.26049 3.96626 0.798281 5.08022 0.796875 6.24219C0.796875 11.046 7.82332 14.8843 8.12215 15.0457C8.23827 15.1082 8.36811 15.1409 8.5 15.1409C8.63189 15.1409 8.76173 15.1082 8.87785 15.0457C9.17668 14.8843 16.2031 11.046 16.2031 6.24219C16.2017 5.08022 15.7395 3.96626 14.9179 3.14462C14.0962 2.32299 12.9823 1.86078 11.8203 1.85938ZM11.4557 11.313C10.5309 12.0978 9.54221 12.8041 8.5 13.4247C7.45779 12.8041 6.46912 12.0978 5.54426 11.313C4.10523 10.0785 2.39062 8.19586 2.39062 6.24219C2.39062 5.50248 2.68447 4.79307 3.20752 4.27002C3.73057 3.74697 4.43998 3.45312 5.17969 3.45312C6.36172 3.45312 7.35117 4.07734 7.76223 5.08273C7.82205 5.2293 7.92418 5.35472 8.05558 5.44301C8.18698 5.53129 8.3417 5.57844 8.5 5.57844C8.6583 5.57844 8.81302 5.53129 8.94442 5.44301C9.07582 5.35472 9.17795 5.2293 9.23777 5.08273C9.64883 4.07734 10.6383 3.45312 11.8203 3.45312C12.56 3.45312 13.2694 3.74697 13.7925 4.27002C14.3155 4.79307 14.6094 5.50248 14.6094 6.24219C14.6094 8.19586 12.8948 10.0785 11.4557 11.313Z" fill="#355B5E"/>
</g>
</svg>
